<svg width="114" height="36" viewBox="0 0 114 36" fill="none" xmlns="http://www.w3.org/2000/svg">
<path fill-rule="evenodd" clip-rule="evenodd" d="M16.6838 11.8522C17.7866 11.6187 18.934 11.7173 19.9807 12.1354C21.0275 12.5535 21.9267 13.2724 22.5646 14.2012C23.2025 15.13 23.5504 16.2269 23.5644 17.3533C23.5784 18.4796 23.2578 19.5848 22.6432 20.5291C22.0286 21.4735 21.1476 22.2145 20.1115 22.6584C19.0755 23.1024 17.9309 23.2294 16.8226 23.0234C15.7143 22.8174 14.6921 22.2876 13.8851 21.5011C13.0781 20.7145 12.5226 19.7065 12.289 18.6046C12.133 17.8728 12.123 17.1175 12.2595 16.3818C12.3961 15.6462 12.6765 14.9447 13.0847 14.3175C13.4929 13.6903 14.0209 13.1497 14.6385 12.7267C15.2561 12.3036 15.9511 12.0065 16.6838 11.8522Z" fill="#FFF4EC"/>
<path fill-rule="evenodd" clip-rule="evenodd" d="M32.7255 16.0816C32.0298 19.3714 30.044 25.5254 23.2581 28.2273C16.5065 30.9172 12.4603 27.5023 10.9869 25.8321C10.54 25.4539 10.4268 26.0181 10.4268 26.0181C11.4949 28.8242 14.2033 33.6563 20.1847 33.6994C28.4588 33.7381 34.5609 24.8927 33.3155 16.0816C33.0011 15.5829 32.7255 16.0816 32.7255 16.0816Z" fill="#FFF4EC"/>
<path fill-rule="evenodd" clip-rule="evenodd" d="M11.4412 31.7567C8.81179 29.7322 4.18757 25.3363 4.69409 18.1135C5.19763 10.9249 9.97083 8.76047 12.0893 8.15311C12.6152 7.9194 12.1638 7.57254 12.1638 7.57254C9.20807 7.33436 3.7466 7.69908 1.13951 13.0328C-2.43592 20.4209 2.81103 29.6474 11.185 32.2837C11.7675 32.2182 11.4412 31.7567 11.4412 31.7567Z" fill="#FFF4EC"/>
<path fill-rule="evenodd" clip-rule="evenodd" d="M7.25616 5.95278C10.2536 4.41503 16.302 2.08236 22.8152 5.73544C29.2942 9.37364 29.2912 14.7461 28.9605 16.9746C28.9605 17.57 29.4685 17.3006 29.4685 17.3006C30.9389 14.6717 32.9099 9.45849 29.0454 4.69341C23.6823 -1.88333 12.8681 -1.09585 6.87031 5.48684C6.69154 6.05103 7.25616 5.95278 7.25616 5.95278Z" fill="#FFF4EC"/>
<path d="M51.1149 18.2461C49.5934 18.2461 48.2834 17.998 47.1849 17.5018C46.1085 17.0235 45.2118 16.2161 44.624 15.1959C44.0162 14.1568 43.6865 12.8667 43.6348 11.3255C43.6179 10.5831 43.6095 9.85668 43.6095 9.14611C43.6095 8.43604 43.6184 7.71107 43.6348 6.96676C43.6855 5.4305 44.0236 4.14681 44.6493 3.11569C45.2628 2.09607 46.1684 1.28396 47.249 0.784506C48.3564 0.262495 49.645 0.00099523 51.1149 2.81405e-06C52.5848 -0.000989602 53.876 0.26051 54.9883 0.784506C56.0706 1.28612 56.9795 2.09745 57.5999 3.11569C58.2345 4.14582 58.5682 5.42951 58.601 6.96676C58.6352 7.71107 58.6516 8.43604 58.6516 9.14611C58.6516 9.85618 58.6352 10.5826 58.601 11.3255C58.5503 12.8617 58.2211 14.1519 57.6133 15.1959C57.0255 16.2161 56.1288 17.0235 55.0524 17.5018C53.9489 17.999 52.6365 18.2471 51.1149 18.2461ZM51.1149 15.181C52.1637 15.181 53.0218 14.8684 53.6892 14.2432C54.3566 13.6179 54.7157 12.5962 54.7663 11.1781C54.8011 10.4338 54.818 9.74504 54.817 9.11187C54.816 8.47871 54.7991 7.7989 54.7663 7.07245C54.7316 6.12767 54.5583 5.35905 54.2464 4.76658C53.9685 4.21062 53.5202 3.75791 52.9667 3.47445C52.3896 3.19658 51.7554 3.05789 51.1149 3.06955C50.4833 3.05982 49.8581 3.19851 49.29 3.47445C48.734 3.75907 48.2817 4.21107 47.9968 4.76658C47.6751 5.36203 47.4973 6.13065 47.4635 7.07245C47.4466 7.7989 47.4382 8.47871 47.4382 9.11187C47.4382 9.74504 47.4466 10.4338 47.4635 11.1781C47.5162 12.5972 47.8757 13.6189 48.5421 14.2432C49.2085 14.8674 50.0661 15.18 51.1149 15.181Z" fill="#FFF4EC"/>
<path d="M61.1559 17.9928C61.0189 17.9929 60.8874 17.9395 60.7894 17.8439C60.736 17.7964 60.6936 17.7378 60.665 17.6723C60.6365 17.6067 60.6225 17.5358 60.624 17.4643C60.626 17.3854 60.6432 17.3075 60.6747 17.2351L66.735 0.918271C66.7994 0.737652 66.9086 0.576311 67.0523 0.449355C67.2205 0.314477 67.433 0.247074 67.6483 0.260302H70.6144C70.8296 0.247505 71.0419 0.31486 71.2103 0.449355C71.3531 0.57711 71.4622 0.738202 71.5276 0.918271L77.5865 17.2351C77.6183 17.3075 77.636 17.3853 77.6386 17.4643C77.6402 17.5358 77.6262 17.6067 77.5976 17.6723C77.5691 17.7378 77.5266 17.7964 77.4732 17.8439C77.3745 17.9393 77.2426 17.9926 77.1053 17.9928H74.7216C74.6274 18.0009 74.5326 17.9893 74.4431 17.9588C74.3535 17.9283 74.2714 17.8796 74.2017 17.8156C74.1193 17.7291 74.044 17.636 73.9768 17.5373C73.9663 17.5197 73.9574 17.5013 73.95 17.4822L72.8997 14.7133C72.8782 14.6569 72.8401 14.6083 72.7903 14.574C72.7406 14.5397 72.6815 14.5213 72.6211 14.5213H65.6475C65.5871 14.5213 65.528 14.5397 65.4783 14.574C65.4285 14.6083 65.3904 14.6569 65.3689 14.7133L64.3008 17.512C64.2466 17.623 64.1735 17.7237 64.0847 17.8097C64.0109 17.875 63.9243 17.9244 63.8305 17.9549C63.7367 17.9854 63.6377 17.9962 63.5395 17.9868L61.1559 17.9928ZM66.7797 11.4562H71.4814C71.5294 11.4563 71.5767 11.4448 71.6193 11.4226C71.6619 11.4005 71.6985 11.3684 71.7261 11.3291C71.7536 11.2897 71.7711 11.2444 71.7773 11.1968C71.7835 11.1492 71.7781 11.1008 71.7615 11.0558L69.3987 4.59815C69.3776 4.54117 69.3395 4.49203 69.2895 4.45733C69.2396 4.42263 69.1802 4.40403 69.1194 4.40403C69.0586 4.40403 68.9992 4.42263 68.9493 4.45733C68.8993 4.49203 68.8612 4.54117 68.8401 4.59815L66.4937 11.0573C66.4772 11.1027 66.4721 11.1515 66.4787 11.1993C66.4853 11.2472 66.5035 11.2927 66.5317 11.332C66.5598 11.3712 66.5971 11.4031 66.6403 11.4247C66.6835 11.4464 66.7314 11.4572 66.7797 11.4562Z" fill="#FFF4EC"/>
<path d="M80.6554 17.9929C80.5752 17.9939 80.4956 17.9788 80.4213 17.9483C80.3471 17.9179 80.2798 17.8728 80.2234 17.8157C80.1643 17.7559 80.1181 17.6846 80.0876 17.6063C80.0572 17.5279 80.043 17.4442 80.0461 17.3602V15.4592C80.0365 15.2478 80.085 15.0378 80.1862 14.8519C80.2536 14.7328 80.3346 14.6219 80.4275 14.5214L88.7478 3.87921C88.7821 3.83531 88.8034 3.78268 88.8092 3.72731C88.815 3.67193 88.8052 3.61603 88.7809 3.56595C88.7565 3.51588 88.7186 3.47363 88.6714 3.44401C88.6242 3.41439 88.5697 3.39858 88.5139 3.39838H80.9161C80.832 3.40175 80.7482 3.38775 80.6697 3.35728C80.5913 3.3268 80.52 3.28048 80.4603 3.22124C80.4027 3.16557 80.3572 3.09863 80.3267 3.0246C80.2962 2.95058 80.2813 2.87106 80.283 2.79103V0.890052C80.2794 0.806014 80.2933 0.72215 80.3239 0.643771C80.3544 0.565392 80.4009 0.494206 80.4605 0.434729C80.52 0.375251 80.5912 0.328777 80.6697 0.29825C80.7481 0.267723 80.832 0.253806 80.9161 0.257387H93.1605C93.2446 0.253806 93.3285 0.267723 93.407 0.29825C93.4854 0.328777 93.5567 0.375251 93.6162 0.434729C93.6757 0.494206 93.7222 0.565392 93.7528 0.643771C93.7833 0.72215 93.7972 0.806014 93.7936 0.890052V2.79103C93.7966 2.96121 93.762 3.12995 93.6923 3.28525C93.6322 3.41691 93.5556 3.54045 93.4644 3.65294L85.3288 14.3547C85.2953 14.3988 85.2747 14.4514 85.2694 14.5066C85.2642 14.5617 85.2744 14.6173 85.2991 14.6669C85.3237 14.7166 85.3617 14.7584 85.4088 14.7877C85.4559 14.8169 85.5102 14.8324 85.5657 14.8325H93.4346C93.5189 14.8289 93.603 14.8429 93.6817 14.8735C93.7603 14.9041 93.8317 14.9507 93.8913 15.0103C93.951 15.0699 93.9976 15.1413 94.0283 15.2198C94.0589 15.2984 94.0728 15.3824 94.0693 15.4667V17.3929C94.0701 17.4729 94.0549 17.5522 94.0244 17.6261C93.9939 17.7 93.9489 17.767 93.892 17.8232C93.8317 17.8821 93.7601 17.9282 93.6815 17.9586C93.6029 17.9891 93.5189 18.0033 93.4346 18.0003L80.6554 17.9929Z" fill="#FFF4EC"/>
<path d="M96.9846 17.9928C96.8473 17.9926 96.7154 17.9393 96.6166 17.8439C96.5633 17.7964 96.5208 17.7378 96.4923 17.6723C96.4637 17.6067 96.4497 17.5358 96.4513 17.4643C96.4533 17.3854 96.4705 17.3075 96.5019 17.2351L102.562 0.918271C102.627 0.737653 102.736 0.576311 102.88 0.449355C103.048 0.314733 103.26 0.247362 103.476 0.260302H106.442C106.657 0.247074 106.869 0.314477 107.038 0.449355C107.181 0.576311 107.291 0.737653 107.355 0.918271L113.421 17.2321C113.453 17.3046 113.47 17.3824 113.472 17.4614C113.473 17.5328 113.459 17.6038 113.431 17.6693C113.402 17.7348 113.36 17.7934 113.306 17.841C113.208 17.9359 113.077 17.9893 112.94 17.9898H110.556C110.462 17.9981 110.367 17.9866 110.278 17.9561C110.188 17.9256 110.106 17.8767 110.036 17.8127C109.954 17.7266 109.878 17.6334 109.811 17.5343C109.8 17.517 109.791 17.4985 109.785 17.4792L108.727 14.7104C108.705 14.6539 108.667 14.6053 108.618 14.571C108.568 14.5367 108.509 14.5183 108.448 14.5183H101.475C101.414 14.5183 101.355 14.5367 101.306 14.571C101.256 14.6053 101.218 14.6539 101.196 14.7104L100.128 17.509C100.074 17.6197 100.001 17.7204 99.9135 17.8067C99.8396 17.872 99.7531 17.9214 99.6593 17.9519C99.5655 17.9824 99.4664 17.9933 99.3682 17.9839L96.9846 17.9928ZM102.607 11.4562H107.313C107.361 11.4563 107.408 11.4448 107.451 11.4226C107.494 11.4005 107.53 11.3684 107.558 11.3291C107.585 11.2897 107.603 11.2444 107.609 11.1968C107.615 11.1492 107.61 11.1008 107.593 11.0558L105.227 4.59815C105.207 4.54067 105.169 4.49101 105.118 4.45592C105.068 4.42083 105.009 4.402 104.947 4.402C104.886 4.402 104.827 4.42083 104.776 4.45592C104.726 4.49101 104.688 4.54067 104.667 4.59815L102.327 11.0558C102.31 11.1008 102.305 11.1492 102.311 11.1968C102.317 11.2444 102.335 11.2897 102.362 11.3291C102.39 11.3684 102.426 11.4005 102.469 11.4226C102.512 11.4448 102.559 11.4563 102.607 11.4562Z" fill="#FFF4EC"/>
<path d="M50.2433 31.5306H45.8098L44.8921 33.6147H43.6646L47.4426 25.2784H48.6165L52.4065 33.6147H51.1551L50.2433 31.5306ZM49.8262 30.5779L48.0206 26.4931L46.2329 30.5809L49.8262 30.5779Z" fill="#FFF4EC"/>
<path d="M56.4114 33.2691C55.9159 33.0029 55.5035 32.6053 55.2196 32.1199C54.9382 31.6114 54.7905 31.0397 54.7905 30.4586C54.7905 29.8775 54.9382 29.3058 55.2196 28.7973C55.5024 28.3126 55.9153 27.9166 56.4114 27.654C56.9416 27.3739 57.534 27.2326 58.1336 27.2432C58.6645 27.2334 59.1898 27.3519 59.6651 27.5885C60.1049 27.8105 60.4681 28.1589 60.7079 28.5889L59.8379 29.1486C59.6539 28.8606 59.3969 28.6264 59.093 28.4698C58.7902 28.3171 58.455 28.2394 58.1157 28.2435C57.7269 28.2372 57.343 28.3316 57.0014 28.5174C56.6737 28.6979 56.4048 28.9687 56.2267 29.2975C56.0426 29.659 55.9467 30.0589 55.9467 30.4645C55.9467 30.8702 56.0426 31.2701 56.2267 31.6316C56.4048 31.9604 56.6737 32.2312 57.0014 32.4117C57.343 32.5975 57.7269 32.6919 58.1157 32.6856C58.455 32.6897 58.7902 32.612 59.093 32.4593C59.3969 32.3027 59.6539 32.0685 59.8379 31.7805L60.7079 32.3283C60.4674 32.7593 60.1045 33.1095 59.6651 33.3346C59.1908 33.5746 58.6651 33.6952 58.1336 33.6859C57.5333 33.6967 56.9403 33.5532 56.4114 33.2691Z" fill="#FFF4EC"/>
<path d="M68.925 27.8862C69.3898 28.315 69.6222 28.9541 69.6222 29.8036V33.6145H68.5376V32.7808C68.3384 33.0812 68.0542 33.3154 67.7212 33.4537C67.3227 33.6171 66.8946 33.6962 66.4639 33.6859C65.7567 33.6859 65.1906 33.5152 64.7656 33.1738C64.5695 33.0108 64.4113 32.8072 64.3018 32.5771C64.1922 32.3469 64.134 32.0958 64.1312 31.8409C64.1284 31.5861 64.181 31.3337 64.2853 31.1012C64.3897 30.8687 64.5434 30.6616 64.7358 30.4943C65.141 30.1569 65.7865 29.9882 66.6724 29.9882H68.484V29.7619C68.484 29.2657 68.341 28.8886 68.0549 28.6305C67.7689 28.3725 67.3478 28.2395 66.7916 28.2316C66.4184 28.2313 66.0477 28.2937 65.6952 28.4162C65.3654 28.5238 65.0583 28.6914 64.7894 28.9104L64.3127 28.053C64.6604 27.7818 65.0568 27.5797 65.4806 27.4575C65.9483 27.3167 66.4343 27.2464 66.9227 27.2491C67.7937 27.2451 68.4612 27.4575 68.925 27.8862ZM67.7868 32.5158C68.1022 32.3236 68.3452 32.0327 68.478 31.6882V30.8039H66.7142C65.7448 30.8039 65.2601 31.1294 65.2601 31.7805C65.2568 31.9252 65.2886 32.0685 65.353 32.1982C65.4174 32.3278 65.5123 32.4399 65.6296 32.5248C65.9329 32.7239 66.2923 32.82 66.6546 32.7987C67.051 32.812 67.4433 32.714 67.7868 32.5158Z" fill="#FFF4EC"/>
<path d="M79.5381 24.7749V33.6114H78.4416V32.611C78.1933 32.955 77.8609 33.2297 77.4762 33.4089C77.073 33.5949 76.6332 33.6885 76.1891 33.6828C75.6171 33.6911 75.0526 33.5516 74.5503 33.2779C74.0713 33.0136 73.6767 32.6193 73.4122 32.1406C73.1309 31.6241 72.9892 31.0434 73.001 30.4555C72.9886 29.8695 73.1304 29.2905 73.4122 28.7763C73.6782 28.3003 74.0726 27.9084 74.5503 27.645C75.0526 27.3713 75.6171 27.2318 76.1891 27.2401C76.6197 27.2352 77.0464 27.3225 77.4405 27.4961C77.8172 27.6635 78.1452 27.9237 78.3939 28.2523V24.7749H79.5381ZM77.369 32.4056C77.6929 32.2214 77.9575 31.9488 78.1317 31.6196C78.312 31.259 78.4059 30.8615 78.4059 30.4585C78.4059 30.0554 78.312 29.6579 78.1317 29.2973C77.9581 28.9692 77.6932 28.6983 77.369 28.5173C77.0347 28.3375 76.6611 28.2434 76.2814 28.2434C75.9018 28.2434 75.5282 28.3375 75.1939 28.5173C74.8713 28.7005 74.6069 28.9708 74.4312 29.2973C74.2471 29.6568 74.1511 30.0547 74.1511 30.4585C74.1511 30.8622 74.2471 31.2602 74.4312 31.6196C74.6076 31.9472 74.8717 32.2193 75.1939 32.4056C75.5269 32.5892 75.9011 32.6855 76.2814 32.6855C76.6618 32.6855 77.036 32.5892 77.369 32.4056Z" fill="#FFF4EC"/>
<path d="M89.1802 30.8396H84.0554C84.083 31.1002 84.162 31.3528 84.2878 31.5828C84.4136 31.8127 84.5837 32.0155 84.7884 32.1794C85.2309 32.5261 85.7818 32.7054 86.3437 32.6855C86.6851 32.6985 87.0252 32.6367 87.3402 32.5046C87.6552 32.3724 87.9374 32.173 88.1672 31.9204L88.7988 32.6647C88.5096 33.0005 88.1438 33.2619 87.7322 33.4268C87.217 33.6224 86.6672 33.7101 86.1167 33.6845C85.5662 33.6589 85.0269 33.5205 84.5322 33.278C84.0323 33.0177 83.6184 32.6186 83.3404 32.1288C83.0544 31.6201 82.9084 31.0448 82.9173 30.4615C82.9084 29.8825 83.0501 29.3111 83.3284 28.8032C83.5911 28.322 83.9833 27.924 84.4607 27.654C84.9572 27.3761 85.5184 27.2344 86.0875 27.2431C86.6529 27.2332 87.2106 27.3751 87.7024 27.654C88.1725 27.9254 88.5567 28.3237 88.8108 28.8032C89.0842 29.3243 89.2215 29.906 89.21 30.4943C89.2065 30.6098 89.1965 30.7251 89.1802 30.8396ZM84.7109 28.7079C84.3381 29.048 84.1064 29.5154 84.0614 30.0179H88.1136C88.0655 29.518 87.8341 29.0536 87.464 28.7139C87.079 28.389 86.5914 28.2107 86.0875 28.2107C85.5836 28.2107 85.0959 28.389 84.7109 28.7139V28.7079Z" fill="#FFF4EC"/>
<path d="M102.296 27.9339C102.761 28.3934 102.993 29.0772 102.993 29.9852V33.6175H101.849V30.1133C101.849 29.5009 101.708 29.0405 101.426 28.7318C101.144 28.4232 100.741 28.2684 100.216 28.2674C99.9606 28.2549 99.7052 28.2967 99.4668 28.3901C99.2285 28.4835 99.0128 28.6264 98.8338 28.8092C98.4911 29.1705 98.3203 29.6885 98.3213 30.3633V33.6145H97.1831V30.1133C97.1831 29.5009 97.0421 29.0405 96.76 28.7318C96.4779 28.4232 96.0727 28.2684 95.5444 28.2674C95.2887 28.2549 95.0333 28.2967 94.795 28.3901C94.5566 28.4835 94.3409 28.6264 94.1619 28.8092C93.8202 29.1705 93.6494 29.6885 93.6494 30.3633V33.6145H92.5052V27.3057H93.6077V28.2465C93.8373 27.9217 94.1501 27.6646 94.5135 27.5022C94.9149 27.3255 95.3501 27.2382 95.7887 27.2462C96.2434 27.2376 96.6934 27.3398 97.0997 27.5439C97.4756 27.737 97.7833 28.0403 97.9816 28.4133C98.2282 28.0415 98.5725 27.7449 98.9768 27.5558C99.4254 27.3439 99.9168 27.238 100.413 27.2462C101.203 27.2442 101.831 27.4734 102.296 27.9339Z" fill="#FFF4EC"/>
<path d="M113.004 27.3056L109.941 34.2485C109.67 34.8916 109.356 35.3442 108.994 35.6062C108.612 35.8742 108.155 36.012 107.689 35.9992C107.385 35.9986 107.083 35.9483 106.795 35.8503C106.524 35.7628 106.278 35.614 106.074 35.4156L106.562 34.5582C106.711 34.7063 106.888 34.8236 107.082 34.9033C107.277 34.983 107.485 35.0236 107.695 35.0226C107.946 35.0318 108.192 34.954 108.392 34.8023C108.62 34.5954 108.794 34.3358 108.898 34.0461L109.101 33.5995L106.306 27.3056H107.498L109.697 32.352L111.884 27.3056H113.004Z" fill="#FFF4EC"/>
</svg>
